<?xml version="1.0" encoding="utf-8"?>
<!-- Generator: Adobe Illustrator 21.1.0, SVG Export Plug-In . SVG Version: 6.00 Build 0)  -->
<svg version="1.1" xmlns="http://www.w3.org/2000/svg" xmlns:xlink="http://www.w3.org/1999/xlink" x="0px" y="0px"
	 viewBox="0 0 306 96" style="enable-background:new 0 0 306 96;" xml:space="preserve">
<style type="text/css">
	.st0{fill:#FFFFFF;}
	.st1{fill:#030303;}
	.st2{fill:#FFFFFF;stroke:#030303;stroke-width:0.55;stroke-miterlimit:10;}
	.st3{fill:#030303;stroke:#1A1818;stroke-width:0.55;stroke-miterlimit:10;}
	.st4{fill:#000100;stroke:#1A1818;stroke-width:0.55;stroke-miterlimit:10;}
	.st5{fill:none;stroke:#030303;stroke-width:0.55;stroke-miterlimit:10;}
	.st6{fill:#FFFFFF;stroke:#030303;stroke-width:0.825;stroke-miterlimit:10;}
	.st7{fill:#FFFFFF;stroke:#030303;stroke-width:0.55;stroke-linecap:round;stroke-miterlimit:10;}
	.st8{fill:none;stroke:#FFFFFF;stroke-width:0.55;stroke-linejoin:round;stroke-miterlimit:10;}
	.st9{fill:none;stroke:#030303;stroke-width:0.6285;stroke-linecap:round;stroke-miterlimit:10;}
	.st10{fill:none;stroke:#030303;stroke-width:0.55;stroke-linejoin:round;stroke-miterlimit:10;}
	.st11{fill:#030303;stroke:#1A1818;stroke-width:0.55;stroke-linejoin:round;stroke-miterlimit:10;}
	.st12{fill:#FFFFFF;stroke:#030303;stroke-width:0.5281;stroke-miterlimit:10;}
	.st13{fill:#030303;stroke:#1A1818;stroke-width:0.5474;stroke-miterlimit:10;}
	.st14{fill:#000100;stroke:#1A1818;stroke-width:0.5474;stroke-miterlimit:10;}
	.st15{fill:#FFFFFF;stroke:#030303;stroke-width:0.5474;stroke-miterlimit:10;}
	.st16{fill:none;stroke:#030303;stroke-width:0.5474;stroke-miterlimit:10;}
	.st17{fill:#FFFFFF;stroke:#030303;stroke-width:0.8211;stroke-miterlimit:10;}
	.st18{fill:#FFFFFF;stroke:#030303;stroke-width:0.5474;stroke-linecap:round;stroke-miterlimit:10;}
	.st19{fill:none;stroke:#FFFFFF;stroke-width:0.5474;stroke-linejoin:round;stroke-miterlimit:10;}
	.st20{fill:#FFFFFF;stroke:#030303;stroke-width:0.5256;stroke-miterlimit:10;}
</style>
<g id="Layer_2">
	<polygon class="st0" points="306,-252 0,-252.5 0,-348 306,-347.5 	"/>
	<polygon class="st0" points="306,-136 0,-136.5 0,-232 306,-231.5 	"/>
	<polygon class="st0" points="306,96 0,95.5 0,0 306,0.5 	"/>
	<polygon class="st0" points="306,-20 0,-20.5 0,-116 306,-115.5 	"/>
</g>
<g id="Layer_1">
	<path class="st1" d="M139-165.6c-2.1,1.4-2.7,4.4-3.3,6.8c-0.4,1.6-0.8,3.2-1.4,4.7c-0.7,1.5-1.4,2.5-2.4,3.8
		c-0.7,1-0.5,2.3,0.8,2.5c2.4,0.5,0.9-1.1,1.5-2c0.7-1,1.7-2.3,2.5-3.3c2-2.4,4.2-4.6,5.9-7.4c1.2-1.9,1.6-3.6,0.6-5.6
		C141.6-166.3,140.4-166.3,139-165.6z"/>
	<path class="st1" d="M173.8-183c-1.4-0.3-2.9-0.6-4.1-1.2c-0.5-0.2-2.3-1.8-2.7-1.5c-0.4,0.2,0.2,2.6,0.4,3.1
		c0.5,1.5,1.4,1.9,2.9,2C171.6-180.7,173.5-181,173.8-183z"/>
	<path class="st1" d="M174.8-182.9c-1.1-0.9-2.4-1.7-3.3-2.7c-0.3-0.4-1.4-2.6-1.9-2.5c-0.4,0.1-0.8,2.5-0.9,3
		c-0.2,1.6,0.5,2.3,1.9,3C171.9-181.7,173.8-181.2,174.8-182.9z"/>
	<path class="st1" d="M171.9-169.8C171.9-169.8,171.9-169.9,171.9-169.8c0-0.4,0.1-0.8,0.1-1c0-0.7,1.1-1,1.4-1.2
		c0.3-0.2,3.8-1.7,4.4-1.8s2.7,0,3.1,0c0.4,0,1.9-1.8,2.1-2.1c0.2-0.3-0.2-1.2-0.5-1.4c-0.3-0.2-3.6-2-4.1-2.2
		c-0.5-0.2,0.1-0.9,0-1.3c-0.1-0.4-0.8-1-1.7-1.6c-0.9-0.6-3.5-1.5-4-1.6c-0.5-0.2-2-0.1-2.7,0c-0.7,0.1-2.8,3.5-3.2,4.1
		c-0.4,0.5-5.3,4.8-6.2,5.6s-5.3,3.5-6.3,3.9c-1,0.4-7.2,0.6-9,0.5c-0.8-0.1-1.9-0.3-2.9-0.4c0,0-2.6-0.2-4.7,1.3
		c-1.5,1.1-1.9,2.1-2.1,2.6l4.1,1.4l2.3,2l-0.8,4.9c0.3,0,0.5,0,0.7,0.1c0.8,0.1,5.8,2.4,6.6,2.5s6.2-0.6,7.1-0.6s6.8-1.2,7.3-1.5
		c0.5-0.3,3.8-2.1,4.1-2.4c0.2-0.2,1-1.1,1.8-1.8l1.2-8.4L171.9-169.8z"/>
	<path class="st1" d="M172.2-170.2l-1.7-0.6l-2.2,8.2c0.4-0.3,0.8-0.5,1.2-0.6c1.1-0.3,2.7-1.3,3.1-1.4c0.4,0,2.8-0.2,3.2,0.1
		c0.9,0.5,3.1,1.2,3.4,1.2c0.4,0,1.5,0.1,1.8-0.1c0.6-0.4,0.4-1.3,0.1-1.7c-0.3-0.4-2.3-0.6-3.2-1.1c-0.9-0.6-4-1.4-4.8-1.5
		c-0.8-0.1-1.8-0.6-1.5-0.6C171.8-168.4,172.1-169.4,172.2-170.2z"/>
	<path class="st1" d="M141.9-165.2l-3.8-2c-0.1,0.2-0.1,0.3-0.1,0.3c-0.6,0.3-3.7,3-4,3.5c-0.3,0.5-3.1,2.4-4.2,2.8
		c-0.9,0.3-5.1,2.3-5.8,2.4c-0.7,0.1-0.1,1.1-0.1,1.1s1,1.5,1.5,1.8c0.5,0.3,1-1.1,1.7-1.1c0.6,0,1.8-0.9,2.3-1.1
		c0.5-0.1,1.9-0.3,2.3-0.3c2-0.3,6.4-1.3,7.1-1c0.6,0.3,0.2,0.2,1,0.2c0.6-0.1,2,0.2,3,0.4l1.5-4.7L141.9-165.2z"/>
	<path class="st2" d="M74.8-303.8h-6.7c-1,0-1.8,0.8-1.8,1.8l0,0c0,1,0.8,1.8,1.8,1.8h6.7c1,0,1.8-0.8,1.8-1.8l0,0
		C76.7-303,75.8-303.8,74.8-303.8z"/>
	<path class="st3" d="M22.1-309.1L22.1-309.1c0,1,0.8,1.9,1.9,1.9l8.7-0.1c1,0,1.9-0.8,1.9-1.9l0,0c0-1-0.8-1.9-1.9-1.9l-8.7,0.1
		C22.9-310.9,22.1-310.1,22.1-309.1z"/>
	<path class="st4" d="M60.3-304.1c-5.7-0.8-6.6-2.8-8.3-4.3l-2.9-2.5c-2-1.7-4.4-2.3-6.9-1.9l-1.5,0.4l-9.3,1.6
		c-1,0.3-1.6,1.3-1.3,2.2l0.1,0.3c0.3,1,0.6,0.6,2.4,0.9l6.7-0.1l-11.2,12.5l-1.8,2.1L9.9-273.7c-0.8,0.9-0.7,2.4,0.2,3.2l0.1,0.1
		c0.9,0.8,2.4,0.7,3.2-0.2l16.4-19.1l3.9,3.3l-16.4,19.1c-0.8,0.9-0.7,2.4,0.2,3.2l0.1,0.1c0.9,0.8,2.4,0.7,3.2-0.2l16.4-19.1
		l1.8-2.1l14-15"/>
	<ellipse transform="matrix(0.6518 -0.7584 0.7584 0.6518 257.0196 -68.1474)" class="st2" cx="54.3" cy="-314" rx="5" ry="5"/>
	<polygon class="st1" points="34.3,-280.2 18.7,-269 31.9,-287.4 31,-288.2 14.6,-272.2 23.5,-289.5 31.2,-298.5 42.1,-289.2 	"/>
	<polyline class="st5" points="51,-319.6 52.5,-316.2 56.7,-312.5 60.3,-311.6 	"/>
	<path class="st1" d="M22.4-259c1-1.2,1.2-3.5,0.3-4.4l-0.8-0.7l0,0l-4.6-3.9l-2.3,2.7L22.4-259z"/>
	<rect x="37.6" y="-311" transform="matrix(0.419 0.908 -0.908 0.419 -258.5833 -216.0267)" class="st1" width="3.8" height="1.9"/>
	
		<rect x="31.9" y="-297.6" transform="matrix(0.7584 0.6518 -0.6518 0.7584 -183.8981 -97.0904)" class="st1" width="14.3" height="1.9"/>
	
		<rect x="29.7" y="-295.1" transform="matrix(0.7584 0.6518 -0.6518 0.7584 -182.7934 -95.096)" class="st1" width="14.3" height="1.9"/>
	<path class="st6" d="M17.9-268.1c-0.5,0.6-0.6,1.8,0.5,2.7c1.4,1.2,2.5,0.8,3,0.2"/>
	<path class="st1" d="M4.4-274.3c1-1.2,3.6-1.7,4.4-1.2l0.8,0.7l0,0l4.6,3.9l-2.3,2.7L4.4-274.3z"/>
	<path class="st6" d="M14.1-271.4c-0.5,0.6-1.7,0.9-2.8,0c-1.4-1.2-1.2-2.4-0.7-2.9"/>
	<line class="st7" x1="52" y1="-312" x2="52.7" y2="-311.4"/>
	<path class="st1" d="M273.3-258.6c0-1.6-1.4-3.6-4.9-3.6h-1l0,0h-3.8v3.5L273.3-258.6z"/>
	<path class="st1" d="M261.8-258.5c0.7-1.4-1.8-2.8-3-3.4l-0.9-0.5l0,0l-3.4-1.8l-1.6,3.1l4.8,2.5L261.8-258.5z"/>
	
		<ellipse transform="matrix(0.6518 -0.7584 0.7584 0.6518 257.8799 -69.5112)" class="st2" cx="53.2" cy="-315.6" rx="1.4" ry="1.4"/>
	
		<ellipse transform="matrix(0.6518 -0.7584 0.7584 0.6518 257.0255 -66.535)" class="st2" cx="56.1" cy="-313.2" rx="1.4" ry="1.4"/>
	<line class="st8" x1="50.1" y1="-309.6" x2="36.8" y2="-294.1"/>
	<polyline class="st9" points="214.1,-314.7 215.6,-313.5 216,-312.1 	"/>
	<polygon points="100.8,-258.5 98.1,-258.5 82,-303.4 84.2,-303.2 	"/>
	<path class="st10" d="M83.3-302c-2.9-4.4-3.7-6.2-9.3-8.4c-4.8-1.8-9.9-2.3-12.6-7c-4-6.9-9.5-7.5-17.5-8.2
		c-5.6-0.4-24.2,3.4-24-6.2"/>
	<path class="st10" d="M49.5-325c-5.8,0-11.7-0.3-17.3,1.1c-3.6,1-6.8,1.7-10.6,1.9c-2.3,0.1-6.2,0.9-8.1-0.1"/>
	<path class="st10" d="M54.6-323.7c-3.6-1.4-7.9-5.7-10.7-8.3c-1.8-1.7-3.4-4-3.4-6.5"/>
	<path class="st10" d="M83.5-302.8c-1.5-2.8-2.8-5.8-3.3-9.1c-0.9-6.1-1.8-11-4.5-16.7c-2.4-5.1-4.9-8.5-10.5-9.6
		c-3.7-0.7-7.2-2.1-11-2.4"/>
	<path class="st10" d="M83.7-302.1c0.9-12.7-12.9-22.6-23.6-25c-6.8-1.6-14-1.2-20.9-2.4c-3.7-0.7-9.9-2.2-12.2-5.2"/>
	<path class="st10" d="M80.1-312.5c0.1-3-5.5-8.5-7.7-10.4c-3.5-3-7.2-6.2-11.2-8.4c-4.5-2.5-11.1-3.4-15-6.9"/>
	<path class="st10" d="M44.4-331.7c-1.8-0.1-5.6-3-7.2-4c-2.5-1.5-5.3-1.9-8.2-2.6c-3-0.6-6.1-1.3-9.1-2.2c-2-0.6-6.3-1.4-7.4-3.1"
		/>
	<path class="st10" d="M27.3-343.7c6.1,1.6,11.2,1.3,17.2,4.6c5.4,2.9,8.3,6.5,11.5,11.4c3.3,4.9,8.8,9.4,14.1,11.7
		c4.7,2.1,14.4,6.3,13.5,12.9"/>
	<path class="st10" d="M65.7-318.3c-4.9-3.9-9.3-7.2-15.3-9.4c-6.3-2.3-12.1-3.4-18.7-4.3c-5.8-0.8-19.7,2.1-22.7-4"/>
	<path class="st10" d="M83.5-304c1.8-2.8,2.1-8,1.3-11.3c-1-3.9-4.3-6.2-7.8-7.7c-4.2-1.9-13.6-3.9-12.8-10"/>
	<path class="st10" d="M77.5-308.5c-4.6-2-10.3,0.9-14.8-0.8"/>
	<path class="st10" d="M74.8-330.2c-3.4-3.6-8.8-4.8-13.8-4.8c-3.7,0-6.2-0.6-9.3-2.7c-1.9-1.3-5.3-5.4-7.7-5.3"/>
	<path class="st10" d="M38.7-341c-4.5,0-8.1,1.3-12.4,2c-2.9,0.5-10.6,1.7-12.6-0.7"/>
	<path class="st11" d="M71-299.9H52.7c-1.1,0-2.1-0.9-2.1-2.1l0,0c0-1.1,0.9-2.1,2.1-2.1H71c0.5,0,0.5,0.9,0.5,2.1l0,0
		C71.5-300.9,71.5-299.9,71-299.9z"/>
	<line class="st8" x1="31.2" y1="-298.5" x2="42.4" y2="-289.3"/>
	<polyline class="st8" points="47.2,-312.1 46.5,-309 49.9,-309.7 	"/>
	<polyline class="st8" points="50.5,-309.6 49.9,-306.4 53.3,-307.1 	"/>
	<polygon points="72.5,-306.9 75,-297.8 79.1,-295.9 86,-293.9 85.2,-296.6 76.7,-298.4 72.8,-306.9 	"/>
	<path class="st12" d="M75.2-299.4h-0.4c-0.8,0-1.4-0.6-1.4-1.4v-2.6c0-0.8,0.6-1.4,1.4-1.4h0.4c0.8,0,1.4,0.6,1.4,1.4v2.6
		C76.7-300,76-299.4,75.2-299.4z"/>
	<path class="st12" d="M21.8-306.6l-0.4-0.1c-0.8-0.1-1.3-0.9-1.2-1.6l0.4-2.6c0.1-0.8,0.9-1.3,1.6-1.2l0.4,0.1
		c0.8,0.1,1.3,0.9,1.2,1.6l-0.4,2.6C23.4-307,22.6-306.4,21.8-306.6z"/>
	<path class="st2" d="M265.8-260.4L265.8-260.4c1,0.2,1.9-0.5,2.1-1.4l4.9-26.8c0.2-1-0.5-1.9-1.4-2.1h0c-1-0.2-1.9,0.5-2.1,1.4
		l-4.9,26.8C264.2-261.5,264.8-260.5,265.8-260.4z"/>
	<path class="st2" d="M256.3-261.6L256.3-261.6c0.9,0.4,2,0,2.4-0.9l11.5-24.7c0.4-0.9,0-2-0.9-2.4l0,0c-0.9-0.4-2,0-2.4,0.9
		l-11.5,24.7C255-263,255.4-262,256.3-261.6z"/>
	<circle class="st2" cx="276.5" cy="-308.7" r="5"/>
	<ellipse transform="matrix(0.215 -0.9766 0.9766 0.215 521.7028 33.6866)" class="st1" cx="281.8" cy="-307.7" rx="1.4" ry="0.4"/>
	<circle class="st2" cx="276.5" cy="-308.7" r="5"/>
	<path class="st5" d="M275.9-307.1c-1-0.2-0.5-2.3,0.5-2.1s5.5,1.2,5.5,1.2"/>
	<path class="st1" d="M271-309.3l0.6-2.7c1.1-2.7,4.1-4,6.8-2.9l0,0c2.7,1.1,3.5,2.9,3.4,5.6l-1.6-0.1L279-312l0.4,2.5L271-309.3z"
		/>
	<path class="st1" d="M275.6-303l1.1,0.5c2,0.8,3,3.2,2.2,5.2l-3.6,8.8c-0.8,2-3.2,3-5.2,2.2l-1.1-0.5c-2-0.8-3-3.2-2.2-5.2l3.6-8.8
		C271.2-302.9,273.5-303.9,275.6-303z"/>
	<path class="st2" d="M273.3-300L273.3-300c0.6-0.4,1.4-0.3,1.9,0.2l5.9,7.6l9.2,1.1c0.7,0.1,1.2,0.7,1.1,1.5
		c-0.1,0.7-0.7,1.2-1.5,1.1l-9.9-1.2c-0.6-0.1-1-0.5-1.1-1.1l-5.8-7.4C272.6-298.7,272.7-299.5,273.3-300z"/>
	<g>
		
			<ellipse transform="matrix(0.8688 -0.4951 0.4951 0.8688 189.1934 94.7141)" class="st1" cx="273.3" cy="-309.7" rx="0.9" ry="0.9"/>
		
			<ellipse transform="matrix(0.8688 -0.4951 0.4951 0.8688 188.5847 94.095)" class="st1" cx="271.9" cy="-308.9" rx="0.9" ry="0.9"/>
		<ellipse transform="matrix(0.8688 -0.4951 0.4951 0.8688 187.976 93.4759)" class="st1" cx="270.4" cy="-308" rx="0.9" ry="0.9"/>
		
			<ellipse transform="matrix(0.8688 -0.4951 0.4951 0.8688 187.3661 92.8557)" class="st1" cx="268.9" cy="-307.2" rx="0.9" ry="0.9"/>
		
			<ellipse transform="matrix(0.8688 -0.4951 0.4951 0.8688 186.7563 92.2354)" class="st1" cx="267.5" cy="-306.3" rx="0.9" ry="0.9"/>
		
			<ellipse transform="matrix(0.8688 -0.4951 0.4951 0.8688 186.2391 91.7094)" class="st1" cx="266.2" cy="-305.6" rx="0.9" ry="0.9"/>
	</g>
	<g>
		
			<ellipse transform="matrix(0.8688 -0.4951 0.4951 0.8688 189.6617 93.4767)" class="st1" cx="271.2" cy="-311.2" rx="0.9" ry="0.9"/>
		
			<ellipse transform="matrix(0.8688 -0.4951 0.4951 0.8688 189.053 92.8576)" class="st1" cx="269.8" cy="-310.4" rx="0.9" ry="0.9"/>
		
			<ellipse transform="matrix(0.8688 -0.4951 0.4951 0.8688 188.4443 92.2385)" class="st1" cx="268.3" cy="-309.5" rx="0.9" ry="0.9"/>
		
			<ellipse transform="matrix(0.8688 -0.4951 0.4951 0.8688 187.8345 91.6183)" class="st1" cx="266.8" cy="-308.7" rx="0.9" ry="0.9"/>
		
			<ellipse transform="matrix(0.8688 -0.4951 0.4951 0.8688 187.2246 90.998)" class="st1" cx="265.4" cy="-307.8" rx="0.9" ry="0.9"/>
		
			<ellipse transform="matrix(0.8688 -0.4951 0.4951 0.8688 186.7074 90.472)" class="st1" cx="264.1" cy="-307.1" rx="0.9" ry="0.9"/>
	</g>
	<path class="st1" d="M266.7-292l-30.4,8.9c0,0,6.5,11.4,33,12.9c1.6,0.1,5.9-18.3,5.9-18.3L266.7-292z"/>
	<path class="st1" d="M142.1-277.4c-2.5,0.5-4.1,3-5.6,5.1c-1,1.4-1.9,2.7-3.1,3.8c-1.2,1.1-2.3,1.8-3.6,2.6c-1.1,0.6-1.3,2-0.2,2.6
		c2,1.3,1.2-0.7,2.1-1.2c1-0.7,2.5-1.5,3.6-2.1c2.8-1.5,5.7-2.7,8.2-4.6c1.8-1.3,2.9-2.7,2.7-5C144.8-277.1,143.7-277.6,142.1-277.4
		z"/>
	<path class="st1" d="M168.2-280.9c1.7,0.3,3.6,1.2,5.3,2c1.6,0.8,3.3,1.4,5,1.8c0.9,0.2,1.9,0.6,2.4,1c0.5,0.5,0.3,2.3-1.1,2.4
		c-1.2,0-2.2-1.3-3.1-1.7c-1.1-0.5-2.6-0.8-3.7-1c-1.6-0.4-3.3,0.1-4.9-0.6C165.7-278,166-280.9,168.2-280.9z"/>
	<path class="st1" d="M173.3-296.4c-1.3-0.6-2.7-1.2-3.7-2.1c-0.4-0.3-1.8-2.3-2.3-2.1c-0.4,0.2-0.3,2.6-0.3,3.1
		c0.1,1.6,1,2.2,2.4,2.5C170.7-294.6,172.7-294.5,173.3-296.4z"/>
	<path class="st1" d="M174.5-296.8c-0.9-1.1-2-2.2-2.6-3.4c-0.2-0.4-0.8-2.8-1.3-2.8c-0.4,0-1.3,2.3-1.5,2.7c-0.5,1.5,0,2.4,1.2,3.3
		C171.4-296.2,173.1-295.3,174.5-296.8z"/>
	<path class="st1" d="M236.5-321.5c-5,5.9-4.7,7.3-11.4,7.3c-6.7,0-12.2-4-12.2-8.9L236.5-321.5z"/>
	<path d="M241.6-327.7L241.6-327.7C241.6-327.7,241.6-327.7,241.6-327.7c-0.1-0.1-0.3-0.2-0.4-0.3c0.1-0.3,0.1-0.5,0.1-0.8
		c0.1-1.3,0-2.4-0.4-2.4c-0.4,0-0.8,0.9-0.9,2.2c-0.6-1.2-1.3-2.1-1.6-2.1c-0.4,0-0.2,1.1,0.4,2.4c0.1,0.1,0.1,0.2,0.2,0.3
		c0,0-0.1,0-0.1,0c-1.3-0.9-2.5-1.4-2.8-1.2c-0.3,0.2,0.2,0.8,1,1.5c-1.9,0.6-19,1.3-20.3,3.4l-8.1,2.3l15.2,4.4
		c0.4-0.6,2.8-0.4,3.2-1c0.5-0.8,5.9-1.5,6.7-1.3c1.6,0.3,4.1-2.3,5.7-3.7c0,0,0.6,0.3,1.1-0.1c0.5-0.4,0.8-1.3,0.8-1.3l1.3,0.6
		C242.8-324.7,242.8-326.5,241.6-327.7z M240.3-326.2c-0.3,0-0.4-0.3-0.4-0.5s0.3-0.4,0.5-0.4c0.2,0,0.4,0.3,0.4,0.5
		C240.8-326.4,240.6-326.2,240.3-326.2z"/>
	<path d="M221-325.6c0,0-16.2-0.7-16.5,0c-0.3,0.7-0.2,2.5,0.5,3.1s4.6,1.7,7,2.1c2.4,0.4,5.2,2.2,5.9,2.3s5.3-1.7,5.3-1.7
		L221-325.6z"/>
	<path d="M239.1-334.1c-3.7-2.7-8.7-1.4-13,4.2s-3.4,7.7,0.3,10.3L239.1-334.1z"/>
	<path d="M226.1-319.5c2.2-4.9-0.5-10.4-8.1-14.1c-7.6-3.6-9.7-2.1-11.9,2.9L226.1-319.5z"/>
	<polyline class="st10" points="237.8,-322 289.9,-288.4 170.1,-284.8 	"/>
	<line class="st9" x1="214.1" y1="-313.2" x2="220.8" y2="-316.4"/>
	<polyline class="st9" points="218.3,-311.3 220.2,-311.2 221.4,-310.3 	"/>
	<line class="st9" x1="219.2" y1="-310.1" x2="222.6" y2="-316.6"/>
	<path class="st1" d="M172-284.8c0-0.7,1.1-1,1.4-1.2c0.3-0.2,3.8-1.7,4.4-1.8s2.7,0,3.1,0c0.4,0,1.9-1.8,2.1-2.1
		c0.2-0.3-0.2-1.2-0.5-1.4c-0.3-0.2-3.6-2-4.1-2.2c-0.5-0.2,0.1-0.9,0-1.3c-0.1-0.4-0.8-1-1.7-1.6c-0.9-0.6-3.5-1.5-4-1.6
		c-0.5-0.2-2-0.1-2.7,0c-0.7,0.1-2.8,3.5-3.2,4.1c-0.4,0.5-5.3,4.8-6.2,5.6s-5.3,3.5-6.3,3.9c-1,0.4-7.2,0.6-9,0.5
		c-0.8-0.1-1.9-0.3-2.9-0.4c0,0-2.6-0.2-4.7,1.3c-2,1.5-2.1,2.9-2.1,2.9c-0.6,0.4-3.2,3.4-3.5,4c-0.3,0.5-2.7,2.8-3.8,3.3
		c-0.9,0.4-4.8,3-5.4,3.2s0,1.1,0,1.1s1.2,1.4,1.7,1.6c0.5,0.2,0.9-1.2,1.5-1.3c0.6-0.1,1.6-1.2,2.1-1.4c0.5-0.2,1.9-0.5,2.2-0.6
		c1.9-0.6,6.2-2.1,6.9-1.9c0.6,0.2,0.2,0.2,1,0s2.9,0,3.7,0.1s5.8,2.4,6.6,2.5s6.2-0.6,7.1-0.6s6.8-1.2,7.3-1.5
		c0.5-0.3,3.8-2.1,4.1-2.4c0.3-0.3,1.8-2.1,2.9-2.5c1.1-0.5,2.5-1.6,2.9-1.7c0.4-0.1,2.7-0.5,3.2-0.3c0.9,0.4,3.2,0.8,3.5,0.8
		c0.4,0,1.5-0.1,1.8-0.3c0.5-0.5,0.2-1.3-0.1-1.7c-0.4-0.4-2.3-0.3-3.3-0.7c-0.9-0.5-4.1-0.9-4.9-0.9s-1.8-0.4-1.5-0.5
		C171.8-282,172-284.1,172-284.8z"/>
	<path class="st1" d="M142-284.1c-1.3-0.2-2.6-0.5-3-0.6c-0.7-0.2-3-1.6-4.3-2.1s-3.4-2.4-4.4-3.5c-1-1.1-2.7-2.8-3.9-3.1
		c-1.2-0.3-1.2,0.4-1.2,0.4s0.8,1.5,1.1,2.2c0.3,0.6,2.1,3.5,2.8,4.4s2.2,1.9,3.3,2.4c1.1,0.5,2.3,1.6,2.8,1.9
		c0.5,0.3,0.7,1.4,1.6,1.9c0.5,0.3,0.5,0.6,0,0.9c0,0,2.4,0.7,2.4,0.7L142-284.1z"/>
	<path class="st2" d="M74.8-187.8h-6.7c-1,0-1.8,0.8-1.8,1.8l0,0c0,1,0.8,1.8,1.8,1.8h6.7c1,0,1.8-0.8,1.8-1.8l0,0
		C76.7-187,75.8-187.8,74.8-187.8z"/>
	
		<rect x="39.4" y="-197.3" transform="matrix(0.3137 0.9495 -0.9495 0.3137 -158.0491 -173.9893)" class="st1" width="3.8" height="1.9"/>
	<path class="st1" d="M273.3-142.6c0-1.6-1.4-3.6-4.9-3.6h-1l0,0h-3.8v3.5L273.3-142.6z"/>
	<path class="st1" d="M261.8-142.5c0.7-1.4-1.8-2.8-3-3.4l-0.9-0.5l0,0l-3.4-1.8l-1.6,3.1l4.8,2.5L261.8-142.5z"/>
	<polyline class="st9" points="214.3,-201.3 215.5,-199.8 215.6,-198.4 	"/>
	<polygon points="100.8,-142.5 98.1,-142.5 82,-187.4 84.2,-187.2 	"/>
	<path class="st10" d="M83.3-186c-2.9-4.4-3.7-6.2-9.3-8.4c-4.8-1.8-6-6.9-10.9-9.3c-8.5-4.2-8.6-1.4-16.6-2
		c-5.6-0.4-19.5-9.7-29.6-6.6"/>
	<path class="st10" d="M49.5-205.5c-5.8,0-12-1.6-17.7-0.1c-3.6,1-6.7-4.6-10.4-4.5c-2.3,0.1-5.8,2.1-7.7,1.1"/>
	<path class="st10" d="M55.4-206.8c-3.6-1.4-8.7-6.5-11.5-9.1c-1.8-1.7-0.6-12.2-4.6-12.7"/>
	<path class="st10" d="M83.5-186.8c-1.5-2.8-2.8-5.8-3.3-9.1c-0.9-6.1-6.7-10.4-9.4-16.1c-2.4-5.1-1.5-5.7-7.1-6.8
		c-3.7-0.7-13.7-3.5-17.5-3.8"/>
	<path class="st10" d="M83.7-186.1c0.9-12.7-12.9-22.6-23.6-25c-6.8-1.6-14-1.2-20.9-2.4c-3.7-0.7-9.9-2.2-12.2-5.2"/>
	<path class="st10" d="M80.1-196.5c0.1-3-5.5-8.5-7.7-10.4c-3.5-3-7.2-6.2-11.2-8.4c-4.5-2.5-11.1-1.8-15-5.3"/>
	<path class="st10" d="M44.4-215.7c-1.8-0.1-3.5-4.4-5.1-5.4c-2.5-1.5-4.8-2.8-7.8-3.5c-3-0.6-6.7-0.7-9.7-1.7
		c-2-0.6-10.2,0-12.5,3.2"/>
	<path class="st10" d="M22.5-222.2c6.9-3.9,14.3-1,20.3,2.3c5.4,2.9,10,3.4,13.2,8.3c3.3,4.9,6.8,13.2,12.1,15.5
		c4.7,2.1,16.4,2.5,15.5,9.2"/>
	<path class="st10" d="M67.2-196.6c-1-7.1-11.8-9.8-17.8-12c-6.3-2.3-9.1-9.2-15.7-10.1c-5.8-0.8-19.7-1.2-26,1.1"/>
	<path class="st10" d="M83.5-188c1.8-2.8-6.7-8.1-7.5-11.4c-1-3.9-5.7-4.5-9.1-6.1c-4.2-1.9,12.8-13.9-2.7-16.5"/>
	<path class="st10" d="M77.5-192.5c-4.6-2-10.3-2.2-15.3,1.6"/>
	<path class="st10" d="M70.5-212.9c1-4.9-2.3-13.3-7.3-13.3c-3.7,0-7,2.1-10.1,0c-1.9-1.3-1.6-4.8-8-2.5"/>
	<path class="st10" d="M41.9-224.5c-3.5,2.8-10.6-4.8-15-4.1c-2.9,0.5-8.7,0.4-13.3,5"/>
	<path class="st11" d="M71-183.9H52.7c-1.1,0-2.1-0.9-2.1-2.1l0,0c0-1.1,0.9-2.1,2.1-2.1H71c0.5,0,0.5,0.9,0.5,2.1l0,0
		C71.5-184.9,71.5-183.9,71-183.9z"/>
	<polygon points="72.5,-190.9 75,-181.8 79.1,-179.9 86,-177.9 85.2,-180.6 76.7,-182.4 72.8,-190.9 	"/>
	<path class="st12" d="M75.2-183.4h-0.4c-0.8,0-1.4-0.6-1.4-1.4v-2.6c0-0.8,0.6-1.4,1.4-1.4h0.4c0.8,0,1.4,0.6,1.4,1.4v2.6
		C76.7-184,76-183.4,75.2-183.4z"/>
	<g>
		<path class="st3" d="M23.9-197.3L23.9-197.3c-0.1,1,0.6,2,1.6,2.1l8.6,0.9c1,0.1,2-0.6,2.1-1.6v0c0.1-1-0.6-2-1.6-2.1l-8.6-0.9
			C24.9-199.1,24-198.3,23.9-197.3z"/>
		<path class="st4" d="M61.3-188c-5.5-1.4-6.3-3.5-7.8-5.2l-2.6-2.8c-1.8-1.9-4.2-2.8-6.6-2.6l-1.6,0.3l-9.4,0.6
			c-1,0.2-1.8,1.1-1.5,2.1l0.1,0.3c0.2,1,0.5,0.6,2.3,1.2l6.7,0.7l-12.5,11.1l-2,1.9L7.9-163.5c-0.9,0.8-1,2.3-0.1,3.2l0.1,0.1
			c0.8,0.9,2.3,1,3.2,0.1l18.4-17.1l3.5,3.8l-18.4,17.1c-0.9,0.8-1,2.3-0.1,3.2l0.1,0.1c0.8,0.9,2.3,1,3.2,0.1L36-170.2l2-1.9
			l15.6-13.3"/>
		<ellipse transform="matrix(0.7333 -0.6799 0.6799 0.7333 150.0574 -14.5556)" class="st2" cx="56.5" cy="-198.6" rx="5" ry="5"/>
		<polygon class="st1" points="32.8,-167.2 16,-157.8 31.2,-174.7 30.4,-175.6 12.3,-161.5 23.1,-177.7 31.8,-185.7 41.5,-175.3 		
			"/>
		<polyline class="st5" points="53.8,-204.5 55,-201 58.7,-196.8 62.2,-195.5 		"/>
		<path class="st1" d="M18.5-147.6c1.2-1.1,1.6-3.3,0.8-4.3l-0.7-0.7l0,0l-4.1-4.4l-2.6,2.4L18.5-147.6z"/>
		
			<rect x="32.2" y="-184" transform="matrix(0.6799 0.7333 -0.7333 0.6799 -121.6085 -87.4155)" class="st1" width="14.3" height="1.9"/>
		
			<rect x="29.8" y="-181.7" transform="matrix(0.6799 0.7333 -0.7333 0.6799 -120.7432 -84.938)" class="st1" width="14.3" height="1.9"/>
		<path class="st6" d="M14.9-156.9c-0.5,0.5-0.8,1.8,0.2,2.8c1.3,1.3,2.5,1,3,0.5"/>
		<path class="st1" d="M2.4-164.7c1.2-1.1,3.8-1.3,4.5-0.7l0.7,0.7l0,0l4.1,4.4l-2.6,2.4L2.4-164.7z"/>
		<path class="st6" d="M11.3-160.5c-0.5,0.5-1.8,0.8-2.8-0.3c-1.3-1.3-1-2.5-0.4-3"/>
		<line class="st7" x1="54" y1="-196.9" x2="54.6" y2="-196.2"/>
		
			<ellipse transform="matrix(0.7333 -0.6799 0.6799 0.7333 151.0011 -15.6048)" class="st2" cx="55.6" cy="-200.3" rx="1.4" ry="1.4"/>
		
			<ellipse transform="matrix(0.7333 -0.6799 0.6799 0.7333 149.824 -13.1639)" class="st2" cx="58.1" cy="-197.6" rx="1.4" ry="1.4"/>
		<line class="st8" x1="51.8" y1="-194.7" x2="36.8" y2="-180.8"/>
		<line class="st8" x1="31.8" y1="-185.7" x2="41.9" y2="-175.3"/>
		<polyline class="st8" points="49.2,-197.5 48.1,-194.5 51.6,-194.7 		"/>
		<polyline class="st8" points="52.3,-194.6 51.2,-191.5 54.7,-191.8 		"/>
		<path class="st12" d="M23.4-194.8l-0.4-0.1c-0.8-0.2-1.2-1-1-1.8l0.7-2.5c0.2-0.8,1-1.2,1.8-1l0.4,0.1c0.8,0.2,1.2,1,1,1.8
			l-0.7,2.5C24.9-195.1,24.1-194.6,23.4-194.8z"/>
	</g>
	<path class="st2" d="M265.8-144.4L265.8-144.4c1,0.2,1.9-0.5,2.1-1.4l4.9-26.8c0.2-1-0.5-1.9-1.4-2.1l0,0c-1-0.2-1.9,0.5-2.1,1.4
		l-4.9,26.8C264.2-145.5,264.8-144.5,265.8-144.4z"/>
	<path class="st2" d="M256.3-145.6L256.3-145.6c0.9,0.4,2,0,2.4-0.9l11.5-24.7c0.4-0.9,0-2-0.9-2.4l0,0c-0.9-0.4-2,0-2.4,0.9
		l-11.5,24.7C255-147,255.4-146,256.3-145.6z"/>
	<circle class="st2" cx="276.5" cy="-192.7" r="5"/>
	
		<ellipse transform="matrix(0.215 -0.9766 0.9766 0.215 408.4146 124.7512)" class="st1" cx="281.8" cy="-191.7" rx="1.4" ry="0.4"/>
	<circle class="st2" cx="276.5" cy="-192.7" r="5"/>
	<path class="st5" d="M275.9-191.1c-1-0.2-0.5-2.3,0.5-2.1c1,0.2,5.5,1.2,5.5,1.2"/>
	<path class="st1" d="M271-193.3l0.6-2.7c1.1-2.7,4.1-4,6.8-2.9l0,0c2.7,1.1,3.5,2.9,3.4,5.6l-1.6-0.1L279-196l0.4,2.5L271-193.3z"
		/>
	<path class="st1" d="M275.6-187l1.1,0.5c2,0.8,3,3.2,2.2,5.2l-3.6,8.8c-0.8,2-3.2,3-5.2,2.2l-1.1-0.5c-2-0.8-3-3.2-2.2-5.2l3.6-8.8
		C271.2-186.9,273.5-187.9,275.6-187z"/>
	<path class="st2" d="M273.3-184L273.3-184c0.6-0.4,1.4-0.3,1.9,0.2l5.9,7.6l9.2,1.1c0.7,0.1,1.2,0.7,1.1,1.5
		c-0.1,0.7-0.7,1.2-1.5,1.1l-9.9-1.2c-0.6-0.1-1-0.5-1.1-1.1l-5.8-7.4C272.6-182.7,272.7-183.5,273.3-184z"/>
	<g>
		
			<ellipse transform="matrix(0.8688 -0.4951 0.4951 0.8688 131.7604 109.9299)" class="st1" cx="273.3" cy="-193.7" rx="0.9" ry="0.9"/>
		
			<ellipse transform="matrix(0.8688 -0.4951 0.4951 0.8688 131.1517 109.3108)" class="st1" cx="271.9" cy="-192.9" rx="0.9" ry="0.9"/>
		
			<ellipse transform="matrix(0.8688 -0.4951 0.4951 0.8688 130.543 108.6918)" class="st1" cx="270.4" cy="-192" rx="0.9" ry="0.9"/>
		
			<ellipse transform="matrix(0.8688 -0.4951 0.4951 0.8688 129.9332 108.0715)" class="st1" cx="268.9" cy="-191.2" rx="0.9" ry="0.9"/>
		
			<ellipse transform="matrix(0.8688 -0.4951 0.4951 0.8688 129.3233 107.4512)" class="st1" cx="267.5" cy="-190.3" rx="0.9" ry="0.9"/>
		
			<ellipse transform="matrix(0.8688 -0.4951 0.4951 0.8688 128.8061 106.9252)" class="st1" cx="266.2" cy="-189.6" rx="0.9" ry="0.9"/>
	</g>
	<g>
		
			<ellipse transform="matrix(0.8688 -0.4951 0.4951 0.8688 132.2287 108.6925)" class="st1" cx="271.2" cy="-195.2" rx="0.9" ry="0.9"/>
		
			<ellipse transform="matrix(0.8688 -0.4951 0.4951 0.8688 131.62 108.0734)" class="st1" cx="269.8" cy="-194.4" rx="0.9" ry="0.9"/>
		
			<ellipse transform="matrix(0.8688 -0.4951 0.4951 0.8688 131.0113 107.4543)" class="st1" cx="268.3" cy="-193.5" rx="0.9" ry="0.9"/>
		
			<ellipse transform="matrix(0.8688 -0.4951 0.4951 0.8688 130.4015 106.8341)" class="st1" cx="266.8" cy="-192.7" rx="0.9" ry="0.9"/>
		
			<ellipse transform="matrix(0.8688 -0.4951 0.4951 0.8688 129.7916 106.2138)" class="st1" cx="265.4" cy="-191.8" rx="0.9" ry="0.9"/>
		
			<ellipse transform="matrix(0.8688 -0.4951 0.4951 0.8688 129.2744 105.6878)" class="st1" cx="264.1" cy="-191.1" rx="0.9" ry="0.9"/>
	</g>
	<path class="st1" d="M266.7-176l-30.2,14.8c0,0,6.3,11.7,32.8,7c1.6-0.3,5.9-18.3,5.9-18.3L266.7-176z"/>
	<path class="st1" d="M169.6-167.6c1.3,1.2,2.5,2.9,3.5,4.4c1,1.5,2.1,2.9,3.3,4.2c0.6,0.7,1.4,1.5,1.5,2.1c0.2,0.6-1,2.1-2.2,1.4
		c-1-0.6-1.2-2.2-1.8-3.1c-0.7-1-1.8-2-2.7-2.8c-1.2-1.1-2.9-1.7-3.9-3C166-166.4,167.7-168.8,169.6-167.6z"/>
	<path class="st1" d="M236.5-207.5c-5,5.9-4.7,7.3-11.4,7.3c-6.7,0-12.2-4-12.2-8.9L236.5-207.5z"/>
	<path d="M241.6-213.7L241.6-213.7C241.6-213.7,241.6-213.7,241.6-213.7c-0.1-0.1-0.3-0.2-0.4-0.3c0.1-0.3,0.1-0.5,0.1-0.8
		c0.1-1.3,0-2.4-0.4-2.4c-0.4,0-0.8,0.9-0.9,2.2c-0.6-1.2-1.3-2.1-1.6-2.1c-0.4,0-0.2,1.1,0.4,2.4c0.1,0.1,0.1,0.2,0.2,0.3
		c0,0-0.1,0-0.1,0c-1.3-0.9-2.5-1.4-2.8-1.2c-0.3,0.2,0.2,0.8,1,1.5c-1.9,0.6-19,1.3-20.3,3.4l-8.1,2.3l15.2,4.4
		c0.4-0.6,2.8-0.4,3.2-1c0.5-0.8,5.9-1.5,6.7-1.3c1.6,0.3,4.1-2.3,5.7-3.7c0,0,0.6,0.3,1.1-0.1c0.5-0.4,0.8-1.3,0.8-1.3l1.3,0.6
		C242.8-210.7,242.8-212.5,241.6-213.7z M240.3-212.2c-0.3,0-0.4-0.3-0.4-0.5c0-0.3,0.3-0.4,0.5-0.4c0.2,0,0.4,0.3,0.4,0.5
		C240.8-212.4,240.6-212.2,240.3-212.2z"/>
	<path d="M221-211.6c0,0-16.2-0.7-16.5,0c-0.3,0.7-0.2,2.5,0.5,3.1c0.7,0.6,4.6,1.7,7,2.1c2.4,0.4,5.2,2.2,5.9,2.3s5.3-1.7,5.3-1.7
		L221-211.6z"/>
	<path d="M236.3-223.2c-4.4-1-8.6,2.1-10.3,9c-1.7,6.9-0.1,8.4,4.3,9.4L236.3-223.2z"/>
	<path d="M221.6-202.8c4-3.6,3.9-9.7-1.5-16.1c-5.4-6.4-8-5.9-12-2.3L221.6-202.8z"/>
	<polyline class="st10" points="236.5,-207.5 289.9,-172.4 170.1,-171.8 	"/>
	<line class="st9" x1="214" y1="-199.9" x2="221.1" y2="-201.7"/>
	<polyline class="st9" points="217.2,-198.3 218.9,-197.5 219.7,-196.3 	"/>
	<line class="st9" x1="217.6" y1="-196.9" x2="223.2" y2="-201.7"/>
	<path class="st1" d="M142.1-170.6c-1.4-0.1-2.6-0.2-3.1-0.2c-0.7-0.1-3.2-1.2-4.6-1.6s-3.6-2-4.8-3c-1.1-1-3-2.4-4.2-2.5
		c-1.2-0.1-1.1,0.5-1.1,0.5s1,1.4,1.4,2c0.3,0.6,2.5,3.2,3.3,4c0.8,0.7,2.4,1.6,3.5,2c1.2,0.4,2.4,1.3,3,1.5
		c0.6,0.3,0.8,1.3,1.8,1.7c0.5,0.2,0.6,0.5,0.1,0.9c0,0,2.5,0.4,2.5,0.4L142.1-170.6z"/>
	<path class="st2" d="M74.8,44.2h-6.7c-1,0-1.8,0.8-1.8,1.8l0,0c0,1,0.8,1.8,1.8,1.8h6.7c1,0,1.8-0.8,1.8-1.8l0,0
		C76.7,45,75.8,44.2,74.8,44.2z"/>
	<path class="st1" d="M273.3,89.4c0-1.6-1.4-3.6-4.9-3.6h-1l0,0h-3.8v3.5L273.3,89.4z"/>
	<path class="st1" d="M261.8,89.5c0.7-1.4-1.8-2.8-3-3.4l-0.9-0.5l0,0l-3.4-1.8l-1.6,3.1l4.8,2.5L261.8,89.5z"/>
	<polyline class="st9" points="213.9,36.3 215.1,37.8 215.3,39.3 	"/>
	<polygon points="100.8,89.5 98.1,89.5 82,44.6 84.2,44.8 	"/>
	<path class="st10" d="M83.3,46c-2.9-4.4-3.7-6.2-9.3-8.4c-4.8-1.8-6-6.9-10.9-9.3c-8.5-4.2-8.6-1.4-16.6-2
		C41,25.9,27.1,16.7,17,19.8"/>
	<path class="st10" d="M49.5,26.5c-5.8,0-12-1.6-17.7-0.1c-3.6,1-6.7-4.6-10.4-4.5C19.1,22,15.6,24,13.7,23"/>
	<path class="st10" d="M55.4,25.2c-3.6-1.4-8.7-6.5-11.5-9.1c-1.8-1.7-0.6-12.2-4.6-12.7"/>
	<path class="st10" d="M83.5,45.2c-1.5-2.8-2.8-5.8-3.3-9.1C79.4,30,73.6,25.7,70.9,20c-2.4-5.1-1.5-5.7-7.1-6.8
		C60,12.5,50.1,9.7,46.2,9.5"/>
	<path class="st10" d="M83.7,45.9c0.9-12.7-12.9-22.6-23.6-25c-6.8-1.6-14-1.2-20.9-2.4c-3.7-0.7-9.9-2.2-12.2-5.2"/>
	<path class="st10" d="M80.1,35.5c0.1-3-5.5-8.5-7.7-10.4c-3.5-3-7.2-6.2-11.2-8.4c-4.5-2.5-11.1-1.8-15-5.3"/>
	<path class="st10" d="M44.4,16.3c-1.8-0.1-3.5-4.4-5.1-5.4c-2.5-1.5-4.8-2.8-7.8-3.5c-3-0.6-6.7-0.7-9.7-1.7
		c-2-0.6-10.2,0-12.5,3.2"/>
	<path class="st10" d="M22.5,9.8c6.9-3.9,14.3-1,20.3,2.3c5.4,2.9,10,3.4,13.2,8.3c3.3,4.9,6.8,13.2,12.1,15.5
		c4.7,2.1,16.4,2.5,15.5,9.2"/>
	<path class="st10" d="M67.2,35.4c-1-7.1-11.8-9.8-17.8-12c-6.3-2.3-9.1-9.2-15.7-10.1c-5.8-0.8-19.7-1.2-26,1.1"/>
	<path class="st10" d="M83.5,44c1.8-2.8-6.7-8.1-7.5-11.4c-1-3.9-5.7-4.5-9.1-6.1c-4.2-1.9,12.8-13.9-2.7-16.5"/>
	<path class="st10" d="M77.5,39.5c-4.6-2-10.3-2.2-15.3,1.6"/>
	<path class="st10" d="M70.5,19.1c1-4.9-2.3-13.3-7.3-13.3c-3.7,0-7,2.1-10.1,0c-1.9-1.3-1.6-4.8-8-2.5"/>
	<path class="st10" d="M41.9,7.5c-3.5,2.8-10.6-4.8-15-4.1c-2.9,0.5-8.7,0.4-13.3,5"/>
	<path class="st11" d="M71,48.1H52.7c-1.1,0-2.1-0.9-2.1-2.1v0c0-1.1,0.9-2.1,2.1-2.1H71c0.5,0,0.5,0.9,0.5,2.1l0,0
		C71.5,47.1,71.5,48.1,71,48.1z"/>
	<polygon points="72.5,41.1 75,50.2 79.1,52.1 86,54.1 85.2,51.4 76.7,49.6 72.8,41.1 	"/>
	<path class="st12" d="M75.2,48.6h-0.4c-0.8,0-1.4-0.6-1.4-1.4v-2.6c0-0.8,0.6-1.4,1.4-1.4h0.4c0.8,0,1.4,0.6,1.4,1.4v2.6
		C76.7,48,76,48.6,75.2,48.6z"/>
	<g>
		<path class="st3" d="M19.6,48.5L19.6,48.5c0.4,0.9,1.6,1.3,2.5,0.9l7.8-3.7c0.9-0.4,1.3-1.6,0.9-2.5l0,0c-0.4-0.9-1.6-1.3-2.5-0.9
			L20.5,46C19.6,46.5,19.1,47.6,19.6,48.5z"/>
		<path class="st4" d="M57.9,44.2c-2.5-5-8.7-7-10.9-7.7l-3.7-1c-2.5-0.7-5-0.2-7,1.2l-1.2,1l-7.7,5.4c-0.7,0.7-0.9,1.8-0.2,2.6
			l0.2,0.2c0.7,0.7,0.8,0.3,2.6-0.2l6.1-2.9l-4.9,16.1l-0.7,2.7l-6.8,24.2c-0.3,1.2,0.4,2.4,1.6,2.8l0.1,0c1.2,0.3,2.4-0.4,2.8-1.6
			l6.8-24.2l4.9,1.4l-6.8,24.2c-0.3,1.2,0.4,2.4,1.6,2.8l0.1,0c1.2,0.3,2.4-0.4,2.8-1.6l6.8-24.2l0.7-2.7L50.6,46"/>
		<ellipse transform="matrix(0.2702 -0.9628 0.9628 0.2702 4.796 67.1921)" class="st2" cx="46.7" cy="30.4" rx="5" ry="5"/>
		<polygon class="st1" points="42.9,69.5 33.5,86.3 37.7,64 36.5,63.6 28.5,85.1 29.2,65.7 32.4,54.2 46.1,58.1 		"/>
		<polyline class="st5" points="41.3,26.7 44.2,29.2 49.5,30.8 53.1,30 		"/>
		<path class="st1" d="M41,93.7c0.4-1.5-0.3-3.7-1.5-4.1l-1-0.3l0,0l-5.8-1.6l-1,3.4L41,93.7z"/>
		
			<rect x="33.1" y="51.7" transform="matrix(0.9628 0.2702 -0.2702 0.9628 15.7197 -8.907)" class="st1" width="14.3" height="1.9"/>
		
			<rect x="32.2" y="54.8" transform="matrix(0.9628 0.2702 -0.2702 0.9628 16.5399 -8.5502)" class="st1" width="14.3" height="1.9"/>
		<path class="st6" d="M33,87.6c-0.2,0.7,0.3,1.9,1.6,2.2c1.7,0.4,2.6-0.4,2.8-1.2"/>
		<path class="st1" d="M18.3,87.5c0.4-1.5,2.5-3.1,3.4-2.9l1,0.3l0,0l5.8,1.6l-1,3.4L18.3,87.5z"/>
		<path class="st6" d="M28.1,86.4c-0.2,0.7-1.1,1.6-2.5,1.2c-1.7-0.4-2.1-1.6-1.9-2.3"/>
		<line class="st7" x1="45.5" y1="33.2" x2="46.4" y2="33.4"/>
		<ellipse transform="matrix(0.2702 -0.9628 0.9628 0.2702 4.5818 64.8675)" class="st2" cx="45.1" cy="29.4" rx="1.4" ry="1.4"/>
		<ellipse transform="matrix(0.2702 -0.9628 0.9628 0.2702 6.224 69.0388)" class="st2" cx="48.7" cy="30.4" rx="1.4" ry="1.4"/>
		<line class="st8" x1="44.8" y1="36.2" x2="39.2" y2="55.8"/>
		<line class="st8" x1="32.4" y1="54.2" x2="46.4" y2="57.9"/>
		<polyline class="st8" points="41,35.1 41.7,38.3 44.6,36.2 		"/>
		<polyline class="st8" points="45.2,36 45.9,39.2 48.7,37.1 		"/>
		<path class="st12" d="M20.4,50.9L20.1,51c-0.8,0.2-1.6-0.2-1.8-1l-0.7-2.5c-0.2-0.8,0.2-1.6,1-1.8l0.4-0.1c0.8-0.2,1.6,0.2,1.8,1
			l0.7,2.5C21.6,49.9,21.2,50.7,20.4,50.9z"/>
	</g>
	<path class="st2" d="M265.8,87.6L265.8,87.6c1,0.2,1.9-0.5,2.1-1.4l4.9-26.8c0.2-1-0.5-1.9-1.4-2.1h0c-1-0.2-1.9,0.5-2.1,1.4
		l-4.9,26.8C264.2,86.5,264.8,87.5,265.8,87.6z"/>
	<path class="st2" d="M256.3,86.4L256.3,86.4c0.9,0.4,2,0,2.4-0.9l11.5-24.7c0.4-0.9,0-2-0.9-2.4v0c-0.9-0.4-2,0-2.4,0.9l-11.5,24.7
		C255,85,255.4,86,256.3,86.4z"/>
	<circle class="st2" cx="276.5" cy="39.3" r="5"/>
	<ellipse transform="matrix(0.215 -0.9766 0.9766 0.215 181.8382 306.8802)" class="st1" cx="281.8" cy="40.3" rx="1.4" ry="0.4"/>
	<circle class="st2" cx="276.5" cy="39.3" r="5"/>
	<path class="st5" d="M275.9,40.9c-1-0.2-0.5-2.3,0.5-2.1c1,0.2,5.5,1.2,5.5,1.2"/>
	<path class="st1" d="M271,38.7l0.6-2.7c1.1-2.7,4.1-4,6.8-2.9v0c2.7,1.1,3.5,2.9,3.4,5.6l-1.6-0.1L279,36l0.4,2.5L271,38.7z"/>
	<path class="st1" d="M275.6,45l1.1,0.5c2,0.8,3,3.2,2.2,5.2l-3.6,8.8c-0.8,2-3.2,3-5.2,2.2l-1.1-0.5c-2-0.8-3-3.2-2.2-5.2l3.6-8.8
		C271.2,45.1,273.5,44.1,275.6,45z"/>
	<path class="st2" d="M273.3,48L273.3,48c0.6-0.4,1.4-0.3,1.9,0.2l5.9,7.6l9.2,1.1c0.7,0.1,1.2,0.7,1.1,1.5
		c-0.1,0.7-0.7,1.2-1.5,1.1l-9.9-1.2c-0.6-0.1-1-0.5-1.1-1.1l-5.8-7.4C272.6,49.3,272.7,48.5,273.3,48z"/>
	<g>
		
			<ellipse transform="matrix(0.8688 -0.4951 0.4951 0.8688 16.8945 140.3615)" class="st1" cx="273.3" cy="38.3" rx="0.9" ry="0.9"/>
		
			<ellipse transform="matrix(0.8688 -0.4951 0.4951 0.8688 16.2857 139.7425)" class="st1" cx="271.9" cy="39.1" rx="0.9" ry="0.9"/>
		<ellipse transform="matrix(0.8688 -0.4951 0.4951 0.8688 15.677 139.1234)" class="st1" cx="270.4" cy="40" rx="0.9" ry="0.9"/>
		
			<ellipse transform="matrix(0.8688 -0.4951 0.4951 0.8688 15.0672 138.5031)" class="st1" cx="268.9" cy="40.8" rx="0.9" ry="0.9"/>
		
			<ellipse transform="matrix(0.8688 -0.4951 0.4951 0.8688 14.4573 137.8829)" class="st1" cx="267.5" cy="41.7" rx="0.9" ry="0.9"/>
		
			<ellipse transform="matrix(0.8688 -0.4951 0.4951 0.8688 13.9402 137.3569)" class="st1" cx="266.2" cy="42.4" rx="0.9" ry="0.9"/>
	</g>
	<g>
		
			<ellipse transform="matrix(0.8688 -0.4951 0.4951 0.8688 17.3628 139.1241)" class="st1" cx="271.2" cy="36.8" rx="0.9" ry="0.9"/>
		
			<ellipse transform="matrix(0.8688 -0.4951 0.4951 0.8688 16.7541 138.5051)" class="st1" cx="269.8" cy="37.6" rx="0.9" ry="0.9"/>
		<ellipse transform="matrix(0.8688 -0.4951 0.4951 0.8688 16.1454 137.886)" class="st1" cx="268.3" cy="38.5" rx="0.9" ry="0.9"/>
		
			<ellipse transform="matrix(0.8688 -0.4951 0.4951 0.8688 15.5355 137.2657)" class="st1" cx="266.8" cy="39.3" rx="0.9" ry="0.9"/>
		
			<ellipse transform="matrix(0.8688 -0.4951 0.4951 0.8688 14.9257 136.6455)" class="st1" cx="265.4" cy="40.2" rx="0.9" ry="0.9"/>
		
			<ellipse transform="matrix(0.8688 -0.4951 0.4951 0.8688 14.4085 136.1195)" class="st1" cx="264.1" cy="40.9" rx="0.9" ry="0.9"/>
	</g>
	<path class="st1" d="M266.7,56l-23.4,11.5c0,0-0.6,15,26,10.3c1.6-0.3,5.9-18.3,5.9-18.3L266.7,56z"/>
	<path class="st1" d="M143.1,71.7c-2.2,1.3-2.8,4.3-3.5,6.7c-0.5,1.6-0.9,3.2-1.6,4.7c-0.7,1.5-1.5,2.5-2.5,3.7
		c-0.8,1-0.5,2.3,0.7,2.5c2.3,0.5,0.9-1.1,1.6-1.9c0.8-1,1.8-2.3,2.6-3.2c2.1-2.3,4.4-4.5,6.2-7.2c1.2-1.9,1.8-3.5,0.8-5.6
		C145.7,71.1,144.5,71,143.1,71.7z"/>
	<path class="st1" d="M174.3,68.2c1.4,1.1,2.6,2.8,3.6,4.3c1.1,1.5,2.2,2.8,3.5,4c0.6,0.6,1.4,1.4,1.6,2.1s-0.9,2.2-2.1,1.5
		c-1.1-0.6-1.3-2.1-1.9-3c-0.7-1-1.9-1.9-2.8-2.7c-1.2-1.1-2.9-1.5-4-2.9C170.8,69.6,172.5,67.1,174.3,68.2z"/>
	<path class="st1" d="M177.5,54.3c-1.4-0.3-2.9-0.6-4.1-1.2c-0.5-0.2-2.3-1.8-2.7-1.5c-0.4,0.2,0.2,2.6,0.4,3.1
		c0.5,1.5,1.4,1.9,2.9,2C175.4,56.6,177.3,56.3,177.5,54.3z"/>
	<path class="st1" d="M178.6,54.3c-1.1-0.9-2.4-1.7-3.3-2.7c-0.3-0.4-1.4-2.6-1.9-2.5c-0.4,0.1-0.8,2.5-0.9,3
		c-0.2,1.6,0.5,2.3,1.9,3C175.7,55.6,177.6,56,178.6,54.3z"/>
	<path class="st1" d="M236.1,30.1c-5,5.9-4.7,7.3-11.4,7.3s-12.2-4-12.2-8.9L236.1,30.1z"/>
	<path d="M241.2,24L241.2,24C241.2,24,241.2,24,241.2,24c-0.1-0.1-0.3-0.2-0.4-0.3c0.1-0.3,0.1-0.5,0.1-0.8c0.1-1.3,0-2.4-0.4-2.4
		c-0.4,0-0.8,0.9-0.9,2.2c-0.6-1.2-1.3-2.1-1.6-2.1c-0.4,0-0.2,1.1,0.4,2.4c0.1,0.1,0.1,0.2,0.2,0.3c0,0-0.1,0-0.1,0
		c-1.3-0.9-2.5-1.4-2.8-1.2c-0.3,0.2,0.2,0.8,1,1.5c-1.9,0.6-19,1.3-20.3,3.4l-8.1,2.3l15.2,4.4c0.4-0.6,2.8-0.4,3.2-1
		c0.5-0.8,5.9-1.5,6.7-1.3c1.6,0.3,4.1-2.3,5.7-3.7c0,0,0.6,0.3,1.1-0.1c0.5-0.4,0.8-1.3,0.8-1.3l1.3,0.6
		C242.4,27,242.5,25.2,241.2,24z M239.9,25.4c-0.3,0-0.4-0.3-0.4-0.5s0.3-0.4,0.5-0.4c0.2,0,0.4,0.3,0.4,0.5
		C240.4,25.3,240.2,25.5,239.9,25.4z"/>
	<path d="M220.6,26c0,0-16.2-0.7-16.5,0s-0.2,2.5,0.5,3.1c0.7,0.6,4.6,1.7,7,2.1c2.4,0.4,5.2,2.2,5.9,2.3c0.7,0.1,5.3-1.7,5.3-1.7
		L220.6,26z"/>
	<path d="M239.3,18.5c-3.4-3-8.5-2.4-13.4,2.7s-4.2,7.2-0.9,10.3L239.3,18.5z"/>
	<path d="M227.9,29.7c0.8-5.3-3.2-10-11.5-11.5s-9.9,0.5-10.8,5.9L227.9,29.7z"/>
	<polyline class="st10" points="234.8,29 289.9,59.6 175.7,66.5 	"/>
	<line class="st9" x1="213.6" y1="37.8" x2="220.8" y2="35.9"/>
	<polyline class="st9" points="216.8,39.3 218.5,40.1 219.3,41.4 	"/>
	<line class="st9" x1="217.2" y1="40.7" x2="222.8" y2="35.9"/>
	<path class="st1" d="M145.9,67.5c-1.4-0.1-2.6-0.3-3.1-0.3c-0.7-0.1-3.1-1.3-4.5-1.7c-1.4-0.4-3.6-2.1-4.7-3.1
		c-1.1-1-2.9-2.5-4.1-2.7c-1.2-0.2-1.1,0.5-1.1,0.5s1,1.5,1.3,2.1c0.3,0.6,2.4,3.3,3.2,4.1s2.3,1.7,3.5,2.1c1.2,0.4,2.4,1.3,3,1.6
		c0.6,0.3,0.8,1.3,1.8,1.7c0.5,0.2,0.6,0.5,0.1,0.9c0,0,2.5,0.5,2.5,0.5L145.9,67.5z"/>
	<path class="st2" d="M74.8-71.8h-6.7c-1,0-1.8,0.8-1.8,1.8l0,0c0,1,0.8,1.8,1.8,1.8h6.7c1,0,1.8-0.8,1.8-1.8l0,0
		C76.7-71,75.8-71.8,74.8-71.8z"/>
	<path class="st1" d="M273.3-26.6c0-1.6-1.4-3.6-4.9-3.6h-1l0,0h-3.8v3.5L273.3-26.6z"/>
	<path class="st1" d="M261.8-26.5c0.7-1.4-1.8-2.8-3-3.4l-0.9-0.5l0,0l-3.4-1.8l-1.6,3.1l4.8,2.5L261.8-26.5z"/>
	<polyline class="st9" points="212.3,-87.3 213.5,-85.8 213.6,-84.4 	"/>
	<polygon points="100.8,-26.5 98.1,-26.5 82,-71.4 84.2,-71.2 	"/>
	<path class="st10" d="M83.3-70c-2.9-4.4-3.7-6.2-9.3-8.4c-4.8-1.8-6-6.9-10.9-9.3c-8.5-4.2-8.9-2.7-16.9-3.4
		c-5.6-0.4-21.6,1.4-29.1-3.6"/>
	<path class="st10" d="M49.5-91c-5.8,0-10.5,3.1-16.2,4.5c-3.6,1-6.4-5.6-11.1-1.6c-1.7,1.5-8.5-6.9-9.9-0.6"/>
	<path class="st10" d="M55.4-90.8c-3.6-1.4-8.7-6.5-11.5-9.1c-1.8-1.7-11.7-9.5-9.4-11.8"/>
	<path class="st10" d="M83.5-70.8c-1.5-2.8-2.8-5.8-3.3-9.1c-0.9-6.1-3.6-14.7-9.9-14.7c-4.8,0-3.7-2.4-9.3-3.5
		c-3.7-0.7-11-5-14.8-8.4"/>
	<path class="st10" d="M83.7-70.1c0.9-12.7-12.9-20-23.6-22.5c-6.8-1.6-18.6,4.1-21.9-2c-2-3.8-8.4-7.1-12.6-3.2"/>
	<path class="st10" d="M80.1-80.5c0.1-3-5.5-8.5-7.7-10.4c-3.5-3-8.4-2.1-12.4-4.3c-4.5-2.5-9.5-9.9-15-7.4"/>
	<path class="st10" d="M44.4-99.7c-1.8-0.1-6.7-2.5-8.3-3.5c-2.5-1.5-4.9-1.4-7.8-2c-3-0.6-7.2,4.3-10.2,3.4c-2-0.6-5.9-3.4-8.8-7.4
		"/>
	<path class="st10" d="M67.2-80.6c-1-7.1-9.9-14.1-15.9-16.3c-6.3-2.3-13.9,2.6-20.5,1.8c-5.8-0.8-18.6-1.8-23.1-4.5"/>
	<path class="st10" d="M83.5-72c1.8-2.8-6.7-8.1-7.5-11.4c-1-3.9-1.7-8,0.2-11.2c3-5-15.3-3.9-13.6-13.5"/>
	<path class="st10" d="M77.5-76.5c-4.6-2-14.3,1.5-14.3-5"/>
	<path class="st10" d="M70.3-94.6c1-4.9-5.3-8.5-10.2-8.5c-3.7,0-5.4-1.3-8.5-3.4c-1.9-1.3-2.8-3.5-5.3-6.9"/>
	<path class="st10" d="M38.2-105.2c-3.5,2.8-7.6-3.2-11.9-2.5c-2.9,0.5-6.7-2.4-11.1-4.1"/>
	<polygon points="72.5,-74.9 75,-65.8 79.1,-63.9 86,-61.9 85.2,-64.6 76.7,-66.4 72.8,-74.9 	"/>
	<path class="st12" d="M75.2-67.4h-0.4c-0.8,0-1.4-0.6-1.4-1.4v-2.6c0-0.8,0.6-1.4,1.4-1.4h0.4c0.8,0,1.4,0.6,1.4,1.4v2.6
		C76.7-68,76-67.4,75.2-67.4z"/>
	<path class="st2" d="M265.8-28.4L265.8-28.4c1,0.2,1.9-0.5,2.1-1.4l4.9-26.8c0.2-1-0.5-1.9-1.4-2.1h0c-1-0.2-1.9,0.5-2.1,1.4
		l-4.9,26.8C264.2-29.5,264.8-28.5,265.8-28.4z"/>
	<path class="st2" d="M256.3-29.6L256.3-29.6c0.9,0.4,2,0,2.4-0.9l11.5-24.7c0.4-0.9,0-2-0.9-2.4v0c-0.9-0.4-2,0-2.4,0.9l-11.5,24.7
		C255-31,255.4-30,256.3-29.6z"/>
	<circle class="st2" cx="276.5" cy="-76.7" r="5"/>
	<ellipse transform="matrix(0.215 -0.9766 0.9766 0.215 295.1264 215.8157)" class="st1" cx="281.8" cy="-75.7" rx="1.4" ry="0.4"/>
	<circle class="st2" cx="276.5" cy="-76.7" r="5"/>
	<path class="st5" d="M275.9-75.1c-1-0.2-0.5-2.3,0.5-2.1s5.5,1.2,5.5,1.2"/>
	<path class="st1" d="M271-77.3l0.6-2.7c1.1-2.7,4.1-4,6.8-2.9v0c2.7,1.1,3.5,2.9,3.4,5.6l-1.6-0.1L279-80l0.4,2.5L271-77.3z"/>
	<path class="st1" d="M275.6-71l1.1,0.5c2,0.8,3,3.2,2.2,5.2l-3.6,8.8c-0.8,2-3.2,3-5.2,2.2l-1.1-0.5c-2-0.8-3-3.2-2.2-5.2l3.6-8.8
		C271.2-70.9,273.5-71.9,275.6-71z"/>
	<path class="st2" d="M273.3-68L273.3-68c0.6-0.4,1.4-0.3,1.9,0.2l5.9,7.6l9.2,1.1c0.7,0.1,1.2,0.7,1.1,1.5
		c-0.1,0.7-0.7,1.2-1.5,1.1l-9.9-1.2c-0.6-0.1-1-0.5-1.1-1.1l-5.8-7.4C272.6-66.7,272.7-67.5,273.3-68z"/>
	<g>
		
			<ellipse transform="matrix(0.8688 -0.4951 0.4951 0.8688 74.3274 125.1457)" class="st1" cx="273.3" cy="-77.7" rx="0.9" ry="0.9"/>
		
			<ellipse transform="matrix(0.8688 -0.4951 0.4951 0.8688 73.7187 124.5266)" class="st1" cx="271.9" cy="-76.9" rx="0.9" ry="0.9"/>
		<ellipse transform="matrix(0.8688 -0.4951 0.4951 0.8688 73.11 123.9076)" class="st1" cx="270.4" cy="-76" rx="0.9" ry="0.9"/>
		
			<ellipse transform="matrix(0.8688 -0.4951 0.4951 0.8688 72.5002 123.2873)" class="st1" cx="268.9" cy="-75.2" rx="0.9" ry="0.9"/>
		
			<ellipse transform="matrix(0.8688 -0.4951 0.4951 0.8688 71.8903 122.6671)" class="st1" cx="267.5" cy="-74.3" rx="0.9" ry="0.9"/>
		
			<ellipse transform="matrix(0.8688 -0.4951 0.4951 0.8688 71.3731 122.1411)" class="st1" cx="266.2" cy="-73.6" rx="0.9" ry="0.9"/>
	</g>
	<g>
		
			<ellipse transform="matrix(0.8688 -0.4951 0.4951 0.8688 74.7958 123.9083)" class="st1" cx="271.2" cy="-79.2" rx="0.9" ry="0.9"/>
		
			<ellipse transform="matrix(0.8688 -0.4951 0.4951 0.8688 74.1871 123.2892)" class="st1" cx="269.8" cy="-78.4" rx="0.9" ry="0.9"/>
		
			<ellipse transform="matrix(0.8688 -0.4951 0.4951 0.8688 73.5784 122.6702)" class="st1" cx="268.3" cy="-77.5" rx="0.9" ry="0.9"/>
		
			<ellipse transform="matrix(0.8688 -0.4951 0.4951 0.8688 72.9685 122.0499)" class="st1" cx="266.8" cy="-76.7" rx="0.9" ry="0.9"/>
		
			<ellipse transform="matrix(0.8688 -0.4951 0.4951 0.8688 72.3586 121.4296)" class="st1" cx="265.4" cy="-75.8" rx="0.9" ry="0.9"/>
		
			<ellipse transform="matrix(0.8688 -0.4951 0.4951 0.8688 71.8415 120.9037)" class="st1" cx="264.1" cy="-75.1" rx="0.9" ry="0.9"/>
	</g>
	<path class="st1" d="M266.7-60l-25.1,8.9c0,0-15.8,19,27.7,12.9c1.6-0.2,5.9-18.3,5.9-18.3L266.7-60z"/>
	<path class="st1" d="M140.4-61.1c-1.4,1.1-1.5,4.4-1.6,7c-0.1,1.8-0.2,3.4-0.5,5c-0.3,1.5-0.8,2.5-1.3,3.7c-0.4,1,0,2.5,0.9,2.9
		c1.9,1,0.5-1,0.9-1.9c0.4-1,1-2.3,1.5-3.2c1.2-2.3,2.6-4.4,3.5-7.1c0.6-1.9,0.8-3.7-0.3-6.2C142.3-61.4,141.4-61.7,140.4-61.1z"/>
	<path class="st1" d="M172.2-62.5c0.8,1.6,1.3,3.6,1.7,5.4c0.4,1.8,1,3.5,1.7,5.1c0.4,0.8,0.7,1.9,0.7,2.5c-0.1,0.6-1.7,1.7-2.6,0.6
		c-0.8-0.9-0.3-2.5-0.6-3.6c-0.3-1.2-1-2.5-1.5-3.6c-0.7-1.5-2.1-2.6-2.5-4.2C168.4-62.6,170.9-64.2,172.2-62.5z"/>
	<path class="st1" d="M173.3-77.4c-1.2-0.7-2.6-1.4-3.6-2.3c-0.4-0.3-1.7-2.4-2.2-2.2c-0.4,0.1-0.5,2.6-0.4,3c0,1.6,0.9,2.2,2.3,2.7
		C170.6-75.7,172.5-75.5,173.3-77.4z"/>
	<path class="st1" d="M174.3-77.1c-0.8-1.1-1.8-2.3-2.4-3.5c-0.2-0.5-0.6-2.9-1.2-2.9c-0.4,0-1.5,2.2-1.6,2.6
		c-0.6,1.5-0.1,2.4,1.1,3.4C171.1-76.6,172.8-75.7,174.3-77.1z"/>
	<path class="st1" d="M234.5-93.5c-5,5.9-4.7,7.3-11.4,7.3c-6.7,0-12.2-4-12.2-8.9L234.5-93.5z"/>
	<path d="M239.6-99.7L239.6-99.7C239.6-99.7,239.6-99.7,239.6-99.7c-0.1-0.1-0.3-0.2-0.4-0.3c0.1-0.3,0.1-0.5,0.1-0.8
		c0.1-1.3,0-2.4-0.4-2.4c-0.4,0-0.8,0.9-0.9,2.2c-0.6-1.2-1.3-2.1-1.6-2.1c-0.4,0-0.2,1.1,0.4,2.4c0.1,0.1,0.1,0.2,0.2,0.3
		c0,0-0.1,0-0.1,0c-1.3-0.9-2.5-1.4-2.8-1.2c-0.3,0.2,0.2,0.8,1,1.5c-1.9,0.6-19,1.3-20.3,3.4l-8.1,2.3l15.2,4.4
		c0.4-0.6,2.8-0.4,3.2-1c0.5-0.8,5.9-1.5,6.7-1.3c1.6,0.3,4.1-2.3,5.7-3.7c0,0,0.6,0.3,1.1-0.1c0.5-0.4,0.8-1.3,0.8-1.3l1.3,0.6
		C240.8-96.7,240.8-98.5,239.6-99.7z M238.3-98.2c-0.3,0-0.4-0.3-0.4-0.5c0-0.3,0.3-0.4,0.5-0.4c0.2,0,0.4,0.3,0.4,0.5
		C238.8-98.4,238.6-98.2,238.3-98.2z"/>
	<path d="M219-97.6c0,0-16.2-0.7-16.5,0c-0.3,0.7-0.2,2.5,0.5,3.1s4.6,1.7,7,2.1c2.4,0.4,5.2,2.2,5.9,2.3c0.7,0.1,5.3-1.7,5.3-1.7
		L219-97.6z"/>
	<path d="M236.5-107c-3.9-2.3-8.8-0.5-12.5,5.5c-3.7,6-2.6,8,1.3,10.2L236.5-107z"/>
	<path d="M224.1-91.4c2.2-4.9-0.4-10.4-7.9-14.1c-7.5-3.7-9.7-2.2-11.9,2.8L224.1-91.4z"/>
	<polyline class="st10" points="234.5,-93.5 289.9,-56.4 172,-65.9 	"/>
	<line class="st9" x1="212" y1="-85.9" x2="219.1" y2="-87.7"/>
	<polyline class="st9" points="215.2,-84.3 216.9,-83.5 217.7,-82.3 	"/>
	<line class="st9" x1="215.6" y1="-82.9" x2="221.2" y2="-87.7"/>
	<path class="st1" d="M172-65.9c0-0.7,1.1-1,1.4-1.2c0.3-0.2,3.8-1.7,4.4-1.8s2.7,0,3.1,0c0.4,0,1.9-1.8,2.1-2.1
		c0.2-0.3-0.2-1.2-0.5-1.4c-0.3-0.2-3.6-2-4.1-2.2c-0.5-0.2,0.1-0.9,0-1.3c-0.1-0.4-0.8-1-1.7-1.6c-0.9-0.6-3.5-1.5-4-1.6
		c-0.5-0.2-2-0.1-2.7,0c-0.7,0.1-2.8,3.5-3.2,4.1c-0.4,0.5-5.3,4.8-6.2,5.6s-5.3,3.5-6.3,3.9c-1,0.4-7.2,0.6-9,0.5
		c-0.8-0.1-1.9-0.3-2.9-0.4c0,0-2.6-0.2-4.7,1.3c-2,1.5-2.1,2.9-2.1,2.9c-0.6,0.4-3.2,3.4-3.5,4c-0.3,0.5-2.7,2.8-3.8,3.3
		c-0.9,0.4-4.8,3-5.4,3.2s0,1.1,0,1.1s1.2,1.4,1.7,1.6c0.5,0.2,0.9-1.2,1.5-1.3c0.6-0.1,1.6-1.2,2.1-1.4c0.5-0.2,1.9-0.5,2.2-0.6
		c1.9-0.6,6.2-2.1,6.9-1.9c0.6,0.2,0.2,0.2,1,0s2.9,0,3.7,0.1s5.8,2.4,6.6,2.5s6.2-0.6,7.1-0.6s6.8-1.2,7.3-1.5
		c0.5-0.3,3.8-2.1,4.1-2.4c0.3-0.3,1.8-2.1,2.9-2.5c1.1-0.5,2.5-1.6,2.9-1.7c0.4-0.1,2.7-0.5,3.2-0.3c0.9,0.4,3.2,0.8,3.5,0.8
		c0.4,0,1.5-0.1,1.8-0.3c0.5-0.5,0.2-1.3-0.1-1.7c-0.4-0.4-2.3-0.3-3.3-0.7c-0.9-0.5-4.1-0.9-4.9-0.9s-1.8-0.4-1.5-0.5
		C171.8-63.1,172-65.2,172-65.9z"/>
	<path class="st1" d="M142.1-64.8c-1.4-0.1-2.6-0.3-3.1-0.4c-0.7-0.1-3.1-1.3-4.5-1.8s-3.5-2.2-4.6-3.2c-1.1-1-2.9-2.6-4.1-2.7
		c-1.2-0.2-1.1,0.5-1.1,0.5s0.9,1.5,1.3,2.1c0.3,0.6,2.4,3.4,3.1,4.1c0.8,0.8,2.3,1.7,3.4,2.1c1.2,0.5,2.4,1.4,3,1.6
		c0.6,0.3,0.8,1.3,1.7,1.8c0.5,0.2,0.6,0.5,0.1,0.9c0,0,2.4,0.5,2.4,0.5L142.1-64.8z"/>
	<line class="st8" x1="52.5" y1="-80.4" x2="36.2" y2="-68.1"/>
	<polyline class="st8" points="50.2,-83.5 48.8,-80.5 52.3,-80.5 	"/>
	<polyline class="st8" points="52.9,-80.2 51.6,-77.3 55.1,-77.3 	"/>
	<path class="st10" d="M19.7-107.1c7.4,1.2,13.4,0.9,19.4,4.2c5.4,2.9,8.5,8.6,13.9,11c5.4,2.4,8.7,6.1,14,8.5
		c4.7,2.1,16.4,2.5,15.5,9.2"/>
	<path class="st11" d="M71-68.1H52.7c-1.1,0-2.1-0.9-2.1-2.1l0,0c0-1.1,0.9-2.1,2.1-2.1H71c0.5,0,0.5,0.9,0.5,2.1l0,0
		C71.5-69,71.5-68.1,71-68.1z"/>
	<g>
		<path class="st13" d="M25.7-84.7L25.7-84.7c-0.2,1,0.4,2,1.4,2.2l8.6,1.8c1,0.2,2-0.4,2.3-1.4l0,0c0.2-1-0.4-2-1.4-2.2l-8.6-1.8
			C26.9-86.3,25.9-85.7,25.7-84.7z"/>
		<path class="st14" d="M62.4-71.8c-5.4-2-5.9-4.1-7.3-5.9l-2.3-3c-1.6-2.1-3.9-3.2-6.4-3.2l-1.6,0.1l-9.6-0.4
			c-1,0.1-1.9,0.9-1.8,1.9l0,0.3c0.1,1,0.5,0.7,2.2,1.4l6.7,1.3l-13.8,9.5l-2.2,1.6L5.9-53.6c-1,0.7-1.2,2.1-0.5,3.1l0.1,0.1
			c0.7,1,2.2,1.2,3.2,0.4l20.4-14.7l3.1,4L11.8-46c-1,0.7-1.2,2.1-0.5,3.1l0.1,0.1c0.7,1,2.2,1.2,3.2,0.4L35-57.1l2.2-1.6L54.3-70"
			/>
		<path class="st15" d="M61.6-78.7c2.2-1.6,2.7-4.6,1-6.8c-1.7-2.1-4.8-2.6-7-1c-2.2,1.6-2.7,4.6-1,6.8
			C56.3-77.5,59.4-77.1,61.6-78.7z"/>
		<polygon class="st1" points="31.4,-54.5 13.5,-47.2 30.7,-61.9 29.9,-62.9 10.2,-51.1 22.8,-65.7 32.4,-72.7 41.1,-61.5 		"/>
		<polyline class="st16" points="56.6,-88.6 57.4,-85.1 60.6,-80.6 64,-79 		"/>
		<path class="st1" d="M15-36.9c1.3-0.9,2-3,1.3-4.1l-0.6-0.8l0,0L12-46.5l-2.9,2.1L15-36.9z"/>
		<polygon class="st1" points="43.2,-63 34.6,-74.2 36.1,-75.4 44.8,-64.2 		"/>
		<polygon class="st1" points="40.6,-61.1 31.9,-72.3 33.5,-73.5 42.1,-62.3 		"/>
		<path class="st17" d="M12.3-46.4c-0.6,0.5-1,1.6-0.1,2.7c1.1,1.4,2.4,1.2,3,0.8"/>
		<path class="st1" d="M0.5-55.3c1.3-0.9,4-0.9,4.6-0.2l0.6,0.8l0,0l3.7,4.7l-2.9,2.1L0.5-55.3z"/>
		<path class="st17" d="M9.1-50.2c-0.6,0.5-1.9,0.6-2.8-0.5c-1.1-1.4-0.7-2.5-0.1-3"/>
		<line class="st18" x1="55.9" y1="-81.2" x2="56.5" y2="-80.4"/>
		<path class="st15" d="M58.8-83.2c0.6-0.5,0.8-1.4,0.3-2c-0.5-0.6-1.4-0.8-2.1-0.3s-0.8,1.4-0.3,2C57.3-82.8,58.2-82.7,58.8-83.2z"
			/>
		<path class="st15" d="M61.1-80.3c0.6-0.5,0.8-1.4,0.3-2S60-83,59.3-82.5c-0.6,0.5-0.8,1.4-0.3,2C59.5-79.9,60.4-79.8,61.1-80.3z"
			/>
		<line class="st19" x1="53.5" y1="-79.3" x2="36.9" y2="-67.3"/>
		<line class="st19" x1="32.4" y1="-72.7" x2="41.4" y2="-61.5"/>
		<polyline class="st19" points="51.2,-82.3 49.8,-79.4 53.3,-79.4 		"/>
		<polyline class="st19" points="53.9,-79.1 52.6,-76.3 56.1,-76.2 		"/>
		<path class="st20" d="M24.9-82.4l-0.4-0.1c-0.7-0.3-1.1-1.1-0.8-1.8l1-2.4c0.3-0.7,1.1-1.1,1.9-0.8l0.4,0.1
			c0.7,0.3,1.1,1.1,0.8,1.8l-1,2.4C26.5-82.4,25.6-82.1,24.9-82.4z"/>
	</g>
	<path class="st1" d="M175.7,67.4C175.7,67.4,175.7,67.4,175.7,67.4c0-0.4,0.1-0.8,0.1-1c0-0.7,1.1-1,1.4-1.2
		c0.3-0.2,3.8-1.7,4.4-1.8s2.7,0,3.1,0c0.4,0,1.9-1.8,2.1-2.1c0.2-0.3-0.2-1.2-0.5-1.4c-0.3-0.2-3.6-2-4.1-2.2
		c-0.5-0.2,0.1-0.9,0-1.3c-0.1-0.4-0.8-1-1.7-1.6c-0.9-0.6-3.5-1.5-4-1.6c-0.5-0.2-2-0.1-2.7,0c-0.7,0.1-2.8,3.5-3.2,4.1
		c-0.4,0.5-5.3,4.8-6.2,5.6s-5.3,3.5-6.3,3.9c-1,0.4-7.2,0.6-9,0.5c-0.8-0.1-1.9-0.3-2.9-0.4c0,0-2.6-0.2-4.7,1.3
		c-1.5,1.1-1.9,2.1-2.1,2.6l4.1,1.4l2.3,2l-0.8,4.9c0.3,0,0.5,0,0.7,0.1c0.8,0.1,5.8,2.4,6.6,2.5s6.2-0.6,7.1-0.6s6.8-1.2,7.3-1.5
		c0.5-0.3,3.8-2.1,4.1-2.4c0.2-0.2,1-1.1,1.8-1.8l1.2-8.4L175.7,67.4z"/>
	<path class="st1" d="M175.9,67.3l-1.6-0.9l-3.7,7.6c0.4-0.2,0.9-0.3,1.3-0.4c1.2-0.1,2.9-0.8,3.3-0.8c0.4,0,2.8,0.3,3.1,0.7
		c0.8,0.7,2.8,1.7,3.1,1.8c0.3,0.1,1.5,0.4,1.8,0.2c0.6-0.3,0.6-1.2,0.4-1.7c-0.2-0.5-2.1-1-2.9-1.7c-0.7-0.7-3.6-2.1-4.4-2.3
		c-0.8-0.2-1.6-0.9-1.3-0.9C175.1,69,175.6,68.1,175.9,67.3z"/>
	<path class="st1" d="M144.6,70.3l-4.3-0.2c0,0.2,0,0.3,0,0.3c-0.4,0.6-2.1,4.2-2.2,4.8c-0.1,0.6-1.8,3.5-2.7,4.3
		c-0.7,0.7-3.7,4.3-4.2,4.7c-0.6,0.4,0.3,1,0.3,1s1.5,0.9,2.1,1c0.6,0,0.5-1.4,1.1-1.7c0.6-0.3,1.2-1.6,1.6-1.9
		c0.4-0.3,1.6-1.1,1.9-1.2c1.7-1.1,5.3-3.9,6-3.9c0.7,0,0.3,0.1,0.9-0.3c0.5-0.3,1.9-0.7,2.9-0.9l-0.7-4.9L144.6,70.3z"/>
	<rect x="166.2" y="-171.4" class="st1" width="4.6" height="3.5"/>
</g>
</svg>
